STARTFONT 2.1
COMMENT Copyright 2023 Eugene Dragoev
COMMENT 
COMMENT Permission is hereby granted, free of charge, to any person obtaining a copy
COMMENT of this software and associated documentation files (the "Software"), to deal
COMMENT in the Software without restriction, including without limitation the rights
COMMENT to use, copy, modify, merge, publish, distribute, sublicense, and/or sell
COMMENT copies of the Software, and to permit persons to whom the Software is
COMMENT furnished to do so, subject to the following conditions:
COMMENT 
COMMENT The above copyright notice and this permission notice shall be included in all
COMMENT copies or substantial portions of the Software.
COMMENT 
COMMENT THE SOFTWARE IS PROVIDED "AS IS", WITHOUT WARRANTY OF ANY KIND, EXPRESS OR
COMMENT IMPLIED, INCLUDING BUT NOT LIMITED TO THE WARRANTIES OF MERCHANTABILITY,
COMMENT FITNESS FOR A PARTICULAR PURPOSE AND NONINFRINGEMENT. IN NO EVENT SHALL THE
COMMENT AUTHORS OR COPYRIGHT HOLDERS BE LIABLE FOR ANY CLAIM, DAMAGES OR OTHER
COMMENT LIABILITY, WHETHER IN AN ACTION OF CONTRACT, TORT OR OTHERWISE, ARISING FROM,
COMMENT OUT OF OR IN CONNECTION WITH THE SOFTWARE OR THE USE OR OTHER DEALINGS IN THE
COMMENT SOFTWARE.
FONT -windows-12x20-medium-r-normal--20-200-72-72-c-120-oemsys
SIZE 20 96 96
FONTBOUNDINGBOX 12 20 0 -3
STARTPROPERTIES 4
FONT_ASCENT 17
FONT_DESCENT 3
CAP_HEIGHT 14
DEFAULT_CHAR 32
ENDPROPERTIES
CHARS 256
STARTCHAR 0
ENCODING 0
SWIDTH 12000 0
DWIDTH 12 0
BBX 12 20 0 -3
BITMAP
0000
0000
0000
0000
0000
0000
0000
0000
0000
0000
0000
0000
0000
0000
0000
0000
0000
0000
0000
0000
ENDCHAR
STARTCHAR 1
ENCODING 1
SWIDTH 12000 0
DWIDTH 12 0
BBX 12 20 0 -3
BITMAP
0000
0000
0000
0000
0000
1FC0
3060
2020
2DA0
2DA0
2020
2020
28A0
2720
3060
1FC0
0000
0000
0000
0000
ENDCHAR
STARTCHAR 2
ENCODING 2
SWIDTH 12000 0
DWIDTH 12 0
BBX 12 20 0 -3
BITMAP
FFF0
FFF0
FFF0
FFF0
FFF0
E030
C010
C010
CD90
CD90
C010
C010
C890
C710
C010
E030
FFF0
FFF0
FFF0
FFF0
ENDCHAR
STARTCHAR 3
ENCODING 3
SWIDTH 12000 0
DWIDTH 12 0
BBX 12 20 0 -3
BITMAP
0000
0000
0000
0000
0000
0000
18C0
3DE0
3FE0
3FE0
3FE0
1FC0
0F80
0700
0200
0000
0000
0000
0000
0000
ENDCHAR
STARTCHAR 4
ENCODING 4
SWIDTH 12000 0
DWIDTH 12 0
BBX 12 20 0 -3
BITMAP
0000
0000
0000
0000
0000
0000
0200
0700
0F80
1FC0
3FE0
1FC0
0F80
0700
0200
0000
0000
0000
0000
0000
ENDCHAR
STARTCHAR 5
ENCODING 5
SWIDTH 12000 0
DWIDTH 12 0
BBX 12 20 0 -3
BITMAP
0000
0000
0000
0000
0000
0780
0FC0
0780
1320
3B70
3FF0
3FF0
3B70
1320
0300
0300
0000
0000
0000
0000
ENDCHAR
STARTCHAR 6
ENCODING 6
SWIDTH 12000 0
DWIDTH 12 0
BBX 12 20 0 -3
BITMAP
0000
0000
0000
0000
0000
0300
0780
0FC0
1FE0
3FF0
3FF0
3FF0
1B60
0300
0300
0300
0000
0000
0000
0000
ENDCHAR
STARTCHAR 7
ENCODING 7
SWIDTH 12000 0
DWIDTH 12 0
BBX 12 20 0 -3
BITMAP
0000
0000
0000
0000
0000
0000
0000
0000
0600
0F00
0F00
0600
0000
0000
0000
0000
0000
0000
0000
0000
ENDCHAR
STARTCHAR 8
ENCODING 8
SWIDTH 12000 0
DWIDTH 12 0
BBX 12 20 0 -3
BITMAP
FFF0
FFF0
FFF0
FFF0
FFF0
FFF0
FFF0
FFF0
F9F0
F0F0
F0F0
F9F0
FFF0
FFF0
FFF0
FFF0
FFF0
FFF0
FFF0
FFF0
ENDCHAR
STARTCHAR 9
ENCODING 9
SWIDTH 12000 0
DWIDTH 12 0
BBX 12 20 0 -3
BITMAP
0000
0000
0000
0000
0000
0000
0F80
1FC0
38E0
3060
3060
3060
38E0
1FC0
0F80
0000
0000
0000
0000
0000
ENDCHAR
STARTCHAR 10
ENCODING 10
SWIDTH 12000 0
DWIDTH 12 0
BBX 12 20 0 -3
BITMAP
FFF0
FFF0
FFF0
FFF0
FFF0
FFF0
F070
E030
C710
CF90
CF90
CF90
C710
E030
F070
FFF0
FFF0
FFF0
FFF0
FFF0
ENDCHAR
STARTCHAR 11
ENCODING 11
SWIDTH 12000 0
DWIDTH 12 0
BBX 12 20 0 -3
BITMAP
0000
0000
0000
00F0
0070
00F0
01D0
0F80
1F80
39C0
30C0
30C0
39C0
1F80
0F00
0000
0000
0000
0000
0000
ENDCHAR
STARTCHAR 12
ENCODING 12
SWIDTH 12000 0
DWIDTH 12 0
BBX 12 20 0 -3
BITMAP
0000
0000
0000
0000
0000
0000
0F00
1F80
39C0
30C0
30C0
39C0
1F80
0F00
0600
0600
1F80
1F80
0600
0600
ENDCHAR
STARTCHAR 13
ENCODING 13
SWIDTH 12000 0
DWIDTH 12 0
BBX 12 20 0 -3
BITMAP
0000
0000
0000
0400
0600
0700
0780
06C0
0660
0620
0600
0600
0600
1E00
3E00
3E00
1C00
0000
0000
0000
ENDCHAR
STARTCHAR 14
ENCODING 14
SWIDTH 12000 0
DWIDTH 12 0
BBX 12 20 0 -3
BITMAP
0000
0000
0000
0400
0600
0700
0780
06C0
0660
0660
0660
0660
1E60
3E60
3E60
1C60
01E0
03E0
03E0
01C0
ENDCHAR
STARTCHAR 15
ENCODING 15
SWIDTH 12000 0
DWIDTH 12 0
BBX 12 20 0 -3
BITMAP
0000
0000
0000
0000
0000
0300
3330
3FF0
1860
1020
3030
1020
1860
3FF0
3330
0300
0000
0000
0000
0000
ENDCHAR
STARTCHAR 16
ENCODING 16
SWIDTH 12000 0
DWIDTH 12 0
BBX 12 20 0 -3
BITMAP
0000
0000
0000
0000
0000
0800
0C00
0E00
0F00
0F80
0FC0
0F80
0F00
0E00
0C00
0800
0000
0000
0000
0000
ENDCHAR
STARTCHAR 17
ENCODING 17
SWIDTH 12000 0
DWIDTH 12 0
BBX 12 20 0 -3
BITMAP
0000
0000
0000
0000
0000
0040
00C0
01C0
03C0
07C0
0FC0
07C0
03C0
01C0
00C0
0040
0000
0000
0000
0000
ENDCHAR
STARTCHAR 18
ENCODING 18
SWIDTH 12000 0
DWIDTH 12 0
BBX 12 20 0 -3
BITMAP
0000
0000
0000
0000
0600
0F00
1F80
0600
0600
0600
0600
0600
0600
0600
1F80
0F00
0600
0000
0000
0000
ENDCHAR
STARTCHAR 19
ENCODING 19
SWIDTH 12000 0
DWIDTH 12 0
BBX 12 20 0 -3
BITMAP
0000
0000
0000
1980
1980
1980
1980
1980
1980
1980
1980
1980
1980
0000
0000
1980
1980
0000
0000
0000
ENDCHAR
STARTCHAR 20
ENCODING 20
SWIDTH 12000 0
DWIDTH 12 0
BBX 12 20 0 -3
BITMAP
0000
0000
0000
0000
0FF0
1E60
3E60
3E60
3E60
3E60
1E60
0E60
0660
0660
0660
0660
0660
0000
0000
0000
ENDCHAR
STARTCHAR 21
ENCODING 21
SWIDTH 12000 0
DWIDTH 12 0
BBX 12 20 0 -3
BITMAP
0000
0000
0000
0F80
18C0
18C0
0C00
0F00
1980
18C0
18C0
18C0
0CC0
0780
0180
18C0
18C0
0F80
0000
0000
ENDCHAR
STARTCHAR 22
ENCODING 22
SWIDTH 12000 0
DWIDTH 12 0
BBX 12 20 0 -3
BITMAP
0000
0000
0000
0000
0000
0000
0000
0000
0000
0000
0000
0000
0000
0000
3FE0
3FE0
3FE0
0000
0000
0000
ENDCHAR
STARTCHAR 23
ENCODING 23
SWIDTH 12000 0
DWIDTH 12 0
BBX 12 20 0 -3
BITMAP
0000
0000
0000
0000
0600
0F00
1F80
0600
0600
0600
0600
0600
0600
0600
1F80
0F00
0600
1F80
0000
0000
ENDCHAR
STARTCHAR 24
ENCODING 24
SWIDTH 12000 0
DWIDTH 12 0
BBX 12 20 0 -3
BITMAP
0000
0000
0000
0000
0600
0F00
1F80
0600
0600
0600
0600
0600
0600
0600
0600
0600
0600
0000
0000
0000
ENDCHAR
STARTCHAR 25
ENCODING 25
SWIDTH 12000 0
DWIDTH 12 0
BBX 12 20 0 -3
BITMAP
0000
0000
0000
0000
0600
0600
0600
0600
0600
0600
0600
0600
0600
0600
1F80
0F00
0600
0000
0000
0000
ENDCHAR
STARTCHAR 26
ENCODING 26
SWIDTH 12000 0
DWIDTH 12 0
BBX 12 20 0 -3
BITMAP
0000
0000
0000
0000
0000
0000
0000
0000
0040
0060
3FF0
0060
0040
0000
0000
0000
0000
0000
0000
0000
ENDCHAR
STARTCHAR 27
ENCODING 27
SWIDTH 12000 0
DWIDTH 12 0
BBX 12 20 0 -3
BITMAP
0000
0000
0000
0000
0000
0000
0000
0000
0800
1800
3FF0
1800
0800
0000
0000
0000
0000
0000
0000
0000
ENDCHAR
STARTCHAR 28
ENCODING 28
SWIDTH 12000 0
DWIDTH 12 0
BBX 12 20 0 -3
BITMAP
0000
0000
0000
0000
0000
0000
3000
3000
3000
3000
3FF0
0000
0000
0000
0000
0000
0000
0000
0000
0000
ENDCHAR
STARTCHAR 29
ENCODING 29
SWIDTH 12000 0
DWIDTH 12 0
BBX 12 20 0 -3
BITMAP
0000
0000
0000
0000
0000
0000
0000
0000
0840
1860
3FF0
1860
0840
0000
0000
0000
0000
0000
0000
0000
ENDCHAR
STARTCHAR 30
ENCODING 30
SWIDTH 12000 0
DWIDTH 12 0
BBX 12 20 0 -3
BITMAP
0000
0000
0000
0000
0000
0000
0000
0000
0200
0700
0F80
1FC0
3FE0
0000
0000
0000
0000
0000
0000
0000
ENDCHAR
STARTCHAR 31
ENCODING 31
SWIDTH 12000 0
DWIDTH 12 0
BBX 12 20 0 -3
BITMAP
0000
0000
0000
0000
0000
0000
0000
0000
3FE0
1FC0
0F80
0700
0200
0000
0000
0000
0000
0000
0000
0000
ENDCHAR
STARTCHAR 32
ENCODING 32
SWIDTH 12000 0
DWIDTH 12 0
BBX 12 20 0 -3
BITMAP
0000
0000
0000
0000
0000
0000
0000
0000
0000
0000
0000
0000
0000
0000
0000
0000
0000
0000
0000
0000
ENDCHAR
STARTCHAR 33
ENCODING 33
SWIDTH 12000 0
DWIDTH 12 0
BBX 12 20 0 -3
BITMAP
0000
0000
0000
0600
0600
0600
0600
0600
0600
0600
0600
0600
0600
0000
0000
0600
0600
0000
0000
0000
ENDCHAR
STARTCHAR 34
ENCODING 34
SWIDTH 12000 0
DWIDTH 12 0
BBX 12 20 0 -3
BITMAP
0000
0000
1980
1980
0880
1100
0000
0000
0000
0000
0000
0000
0000
0000
0000
0000
0000
0000
0000
0000
ENDCHAR
STARTCHAR 35
ENCODING 35
SWIDTH 12000 0
DWIDTH 12 0
BBX 12 20 0 -3
BITMAP
0000
0000
0000
0000
18C0
18C0
18C0
3FE0
18C0
18C0
18C0
18C0
18C0
3FE0
18C0
18C0
18C0
0000
0000
0000
ENDCHAR
STARTCHAR 36
ENCODING 36
SWIDTH 12000 0
DWIDTH 12 0
BBX 12 20 0 -3
BITMAP
0000
0000
0000
0300
0FC0
1B60
3330
3300
3300
1B00
0FC0
0360
0330
0330
3330
1B60
0FC0
0300
0000
0000
ENDCHAR
STARTCHAR 37
ENCODING 37
SWIDTH 12000 0
DWIDTH 12 0
BBX 12 20 0 -3
BITMAP
0000
0000
0000
0060
0060
38C0
28C0
2980
3980
0300
0300
0670
0650
0C50
0C70
1800
1800
0000
0000
0000
ENDCHAR
STARTCHAR 38
ENCODING 38
SWIDTH 12000 0
DWIDTH 12 0
BBX 12 20 0 -3
BITMAP
0000
0000
0000
0000
0E00
1B00
3180
3180
1B00
0E00
0E10
1B30
31E0
30C0
31E0
1B30
0E10
0000
0000
0000
ENDCHAR
STARTCHAR 39
ENCODING 39
SWIDTH 12000 0
DWIDTH 12 0
BBX 12 20 0 -3
BITMAP
0000
0000
0600
0600
0200
0400
0000
0000
0000
0000
0000
0000
0000
0000
0000
0000
0000
0000
0000
0000
ENDCHAR
STARTCHAR 40
ENCODING 40
SWIDTH 12000 0
DWIDTH 12 0
BBX 12 20 0 -3
BITMAP
0000
0000
0300
0600
0C00
0C00
1800
1800
1800
1800
1800
1800
1800
1800
0C00
0C00
0600
0300
0000
0000
ENDCHAR
STARTCHAR 41
ENCODING 41
SWIDTH 12000 0
DWIDTH 12 0
BBX 12 20 0 -3
BITMAP
0000
0000
0C00
0600
0300
0300
0180
0180
0180
0180
0180
0180
0180
0180
0300
0300
0600
0C00
0000
0000
ENDCHAR
STARTCHAR 42
ENCODING 42
SWIDTH 12000 0
DWIDTH 12 0
BBX 12 20 0 -3
BITMAP
0000
0000
0000
0000
0000
0000
0000
18C0
0D80
0700
3FE0
0700
0D80
18C0
0000
0000
0000
0000
0000
0000
ENDCHAR
STARTCHAR 43
ENCODING 43
SWIDTH 12000 0
DWIDTH 12 0
BBX 12 20 0 -3
BITMAP
0000
0000
0000
0000
0000
0000
0300
0300
0300
0300
1FE0
0300
0300
0300
0300
0000
0000
0000
0000
0000
ENDCHAR
STARTCHAR 44
ENCODING 44
SWIDTH 12000 0
DWIDTH 12 0
BBX 12 20 0 -3
BITMAP
0000
0000
0000
0000
0000
0000
0000
0000
0000
0000
0000
0000
0000
0000
0000
0600
0600
0200
0400
0000
ENDCHAR
STARTCHAR 45
ENCODING 45
SWIDTH 12000 0
DWIDTH 12 0
BBX 12 20 0 -3
BITMAP
0000
0000
0000
0000
0000
0000
0000
0000
0000
0000
3FE0
0000
0000
0000
0000
0000
0000
0000
0000
0000
ENDCHAR
STARTCHAR 46
ENCODING 46
SWIDTH 12000 0
DWIDTH 12 0
BBX 12 20 0 -3
BITMAP
0000
0000
0000
0000
0000
0000
0000
0000
0000
0000
0000
0000
0000
0000
0000
0600
0600
0000
0000
0000
ENDCHAR
STARTCHAR 47
ENCODING 47
SWIDTH 12000 0
DWIDTH 12 0
BBX 12 20 0 -3
BITMAP
0000
0000
0000
0060
0060
00C0
00C0
0180
0180
0300
0300
0600
0600
0C00
0C00
1800
1800
0000
0000
0000
ENDCHAR
STARTCHAR 48
ENCODING 48
SWIDTH 12000 0
DWIDTH 12 0
BBX 12 20 0 -3
BITMAP
0000
0000
0000
0000
0F80
18C0
3060
3860
3C60
3660
3260
3360
31E0
30E0
3060
18C0
0F80
0000
0000
0000
ENDCHAR
STARTCHAR 49
ENCODING 49
SWIDTH 12000 0
DWIDTH 12 0
BBX 12 20 0 -3
BITMAP
0000
0000
0000
0000
0300
0700
0F00
0300
0300
0300
0300
0300
0300
0300
0300
0300
0FC0
0000
0000
0000
ENDCHAR
STARTCHAR 50
ENCODING 50
SWIDTH 12000 0
DWIDTH 12 0
BBX 12 20 0 -3
BITMAP
0000
0000
0000
0000
0F80
18C0
3060
3060
0060
00C0
0180
0300
0600
0C00
1800
3000
3FE0
0000
0000
0000
ENDCHAR
STARTCHAR 51
ENCODING 51
SWIDTH 12000 0
DWIDTH 12 0
BBX 12 20 0 -3
BITMAP
0000
0000
0000
0000
0F80
18C0
3060
0060
0060
00C0
0380
00C0
0060
0060
3060
18C0
0F80
0000
0000
0000
ENDCHAR
STARTCHAR 52
ENCODING 52
SWIDTH 12000 0
DWIDTH 12 0
BBX 12 20 0 -3
BITMAP
0000
0000
0000
0000
0300
0300
0600
0600
0C00
0CC0
18C0
18C0
30C0
30C0
3FF0
00C0
00C0
0000
0000
0000
ENDCHAR
STARTCHAR 53
ENCODING 53
SWIDTH 12000 0
DWIDTH 12 0
BBX 12 20 0 -3
BITMAP
0000
0000
0000
0000
3FE0
3000
3000
3000
3000
3F80
00C0
0060
0060
0060
3060
18C0
0F80
0000
0000
0000
ENDCHAR
STARTCHAR 54
ENCODING 54
SWIDTH 12000 0
DWIDTH 12 0
BBX 12 20 0 -3
BITMAP
0000
0000
0000
0000
0F80
18C0
3060
3000
3000
3780
38C0
3060
3060
3060
3060
18C0
0F80
0000
0000
0000
ENDCHAR
STARTCHAR 55
ENCODING 55
SWIDTH 12000 0
DWIDTH 12 0
BBX 12 20 0 -3
BITMAP
0000
0000
0000
0000
3FE0
0060
00C0
00C0
0180
0180
0300
0300
0600
0600
0C00
0C00
0C00
0000
0000
0000
ENDCHAR
STARTCHAR 56
ENCODING 56
SWIDTH 12000 0
DWIDTH 12 0
BBX 12 20 0 -3
BITMAP
0000
0000
0000
0000
0F80
18C0
3060
3060
3060
18C0
0F80
18C0
3060
3060
3060
18C0
0F80
0000
0000
0000
ENDCHAR
STARTCHAR 57
ENCODING 57
SWIDTH 12000 0
DWIDTH 12 0
BBX 12 20 0 -3
BITMAP
0000
0000
0000
0000
0F80
18C0
3060
3060
3060
3060
18E0
0F60
0060
0060
3060
18C0
0F80
0000
0000
0000
ENDCHAR
STARTCHAR 58
ENCODING 58
SWIDTH 12000 0
DWIDTH 12 0
BBX 12 20 0 -3
BITMAP
0000
0000
0000
0000
0000
0000
0000
0600
0600
0000
0000
0000
0000
0000
0000
0600
0600
0000
0000
0000
ENDCHAR
STARTCHAR 59
ENCODING 59
SWIDTH 12000 0
DWIDTH 12 0
BBX 12 20 0 -3
BITMAP
0000
0000
0000
0000
0000
0000
0000
0600
0600
0000
0000
0000
0000
0000
0000
0600
0600
0200
0400
0000
ENDCHAR
STARTCHAR 60
ENCODING 60
SWIDTH 12000 0
DWIDTH 12 0
BBX 12 20 0 -3
BITMAP
0000
0000
0000
0000
00C0
0180
0300
0600
0C00
1800
3000
1800
0C00
0600
0300
0180
00C0
0000
0000
0000
ENDCHAR
STARTCHAR 61
ENCODING 61
SWIDTH 12000 0
DWIDTH 12 0
BBX 12 20 0 -3
BITMAP
0000
0000
0000
0000
0000
0000
0000
0000
3FE0
0000
0000
3FE0
0000
0000
0000
0000
0000
0000
0000
0000
ENDCHAR
STARTCHAR 62
ENCODING 62
SWIDTH 12000 0
DWIDTH 12 0
BBX 12 20 0 -3
BITMAP
0000
0000
0000
0000
1800
0C00
0600
0300
0180
00C0
0060
00C0
0180
0300
0600
0C00
1800
0000
0000
0000
ENDCHAR
STARTCHAR 63
ENCODING 63
SWIDTH 12000 0
DWIDTH 12 0
BBX 12 20 0 -3
BITMAP
0000
0000
0000
0F80
18C0
3060
3060
0060
00C0
0180
0300
0600
0600
0000
0000
0600
0600
0000
0000
0000
ENDCHAR
STARTCHAR 64
ENCODING 64
SWIDTH 12000 0
DWIDTH 12 0
BBX 12 20 0 -3
BITMAP
0000
0000
0000
0000
0F80
18C0
3060
3060
31E0
3360
3360
3360
31C0
3000
3060
18C0
0F80
0000
0000
0000
ENDCHAR
STARTCHAR 65
ENCODING 65
SWIDTH 12000 0
DWIDTH 12 0
BBX 12 20 0 -3
BITMAP
0000
0000
0000
0000
0700
0D80
18C0
3060
3060
3060
3FE0
3060
3060
3060
3060
3060
3060
0000
0000
0000
ENDCHAR
STARTCHAR 66
ENCODING 66
SWIDTH 12000 0
DWIDTH 12 0
BBX 12 20 0 -3
BITMAP
0000
0000
0000
0000
3F80
30C0
3060
3060
3060
30C0
3F80
30C0
3060
3060
3060
30C0
3F80
0000
0000
0000
ENDCHAR
STARTCHAR 67
ENCODING 67
SWIDTH 12000 0
DWIDTH 12 0
BBX 12 20 0 -3
BITMAP
0000
0000
0000
0000
0F80
18C0
3060
3000
3000
3000
3000
3000
3000
3000
3060
18C0
0F80
0000
0000
0000
ENDCHAR
STARTCHAR 68
ENCODING 68
SWIDTH 12000 0
DWIDTH 12 0
BBX 12 20 0 -3
BITMAP
0000
0000
0000
0000
3F80
30C0
3060
3060
3060
3060
3060
3060
3060
3060
3060
30C0
3F80
0000
0000
0000
ENDCHAR
STARTCHAR 69
ENCODING 69
SWIDTH 12000 0
DWIDTH 12 0
BBX 12 20 0 -3
BITMAP
0000
0000
0000
0000
3FE0
3000
3000
3000
3000
3000
3F80
3000
3000
3000
3000
3000
3FE0
0000
0000
0000
ENDCHAR
STARTCHAR 70
ENCODING 70
SWIDTH 12000 0
DWIDTH 12 0
BBX 12 20 0 -3
BITMAP
0000
0000
0000
0000
3FE0
3000
3000
3000
3000
3000
3F80
3000
3000
3000
3000
3000
3000
0000
0000
0000
ENDCHAR
STARTCHAR 71
ENCODING 71
SWIDTH 12000 0
DWIDTH 12 0
BBX 12 20 0 -3
BITMAP
0000
0000
0000
0000
0F80
18C0
3060
3000
3000
3000
3000
33E0
3060
3060
3060
18C0
0F80
0000
0000
0000
ENDCHAR
STARTCHAR 72
ENCODING 72
SWIDTH 12000 0
DWIDTH 12 0
BBX 12 20 0 -3
BITMAP
0000
0000
0000
0000
3060
3060
3060
3060
3060
3060
3FE0
3060
3060
3060
3060
3060
3060
0000
0000
0000
ENDCHAR
STARTCHAR 73
ENCODING 73
SWIDTH 12000 0
DWIDTH 12 0
BBX 12 20 0 -3
BITMAP
0000
0000
0000
0000
1F80
0600
0600
0600
0600
0600
0600
0600
0600
0600
0600
0600
1F80
0000
0000
0000
ENDCHAR
STARTCHAR 74
ENCODING 74
SWIDTH 12000 0
DWIDTH 12 0
BBX 12 20 0 -3
BITMAP
0000
0000
0000
0000
0060
0060
0060
0060
0060
0060
0060
0060
0060
0060
3060
18C0
0F80
0000
0000
0000
ENDCHAR
STARTCHAR 75
ENCODING 75
SWIDTH 12000 0
DWIDTH 12 0
BBX 12 20 0 -3
BITMAP
0000
0000
0000
0000
3060
30C0
3180
3300
3600
3C00
3800
3C00
3600
3300
3180
30C0
3060
0000
0000
0000
ENDCHAR
STARTCHAR 76
ENCODING 76
SWIDTH 12000 0
DWIDTH 12 0
BBX 12 20 0 -3
BITMAP
0000
0000
0000
0000
3000
3000
3000
3000
3000
3000
3000
3000
3000
3000
3000
3000
3FE0
0000
0000
0000
ENDCHAR
STARTCHAR 77
ENCODING 77
SWIDTH 12000 0
DWIDTH 12 0
BBX 12 20 0 -3
BITMAP
0000
0000
0000
0000
3030
3030
3870
3CF0
37B0
3330
3330
3030
3030
3030
3030
3030
3030
0000
0000
0000
ENDCHAR
STARTCHAR 78
ENCODING 78
SWIDTH 12000 0
DWIDTH 12 0
BBX 12 20 0 -3
BITMAP
0000
0000
0000
0000
3060
3060
3860
3C60
3460
3660
3260
3360
3160
31E0
30E0
3060
3060
0000
0000
0000
ENDCHAR
STARTCHAR 79
ENCODING 79
SWIDTH 12000 0
DWIDTH 12 0
BBX 12 20 0 -3
BITMAP
0000
0000
0000
0000
0F80
18C0
3060
3060
3060
3060
3060
3060
3060
3060
3060
18C0
0F80
0000
0000
0000
ENDCHAR
STARTCHAR 80
ENCODING 80
SWIDTH 12000 0
DWIDTH 12 0
BBX 12 20 0 -3
BITMAP
0000
0000
0000
0000
3F80
30C0
3060
3060
3060
3060
30C0
3F80
3000
3000
3000
3000
3000
0000
0000
0000
ENDCHAR
STARTCHAR 81
ENCODING 81
SWIDTH 12000 0
DWIDTH 12 0
BBX 12 20 0 -3
BITMAP
0000
0000
0000
0000
0F80
18C0
3060
3060
3060
3060
3060
3060
3060
3060
3060
1AC0
0F80
0180
00C0
0000
ENDCHAR
STARTCHAR 82
ENCODING 82
SWIDTH 12000 0
DWIDTH 12 0
BBX 12 20 0 -3
BITMAP
0000
0000
0000
0000
3F80
30C0
3060
3060
3060
3060
30C0
3F80
3600
3300
3180
30C0
3060
0000
0000
0000
ENDCHAR
STARTCHAR 83
ENCODING 83
SWIDTH 12000 0
DWIDTH 12 0
BBX 12 20 0 -3
BITMAP
0000
0000
0000
0000
0F80
18C0
3060
3000
3000
1800
0F80
00C0
0060
0060
3060
18C0
0F80
0000
0000
0000
ENDCHAR
STARTCHAR 84
ENCODING 84
SWIDTH 12000 0
DWIDTH 12 0
BBX 12 20 0 -3
BITMAP
0000
0000
0000
0000
3FF0
0300
0300
0300
0300
0300
0300
0300
0300
0300
0300
0300
0300
0000
0000
0000
ENDCHAR
STARTCHAR 85
ENCODING 85
SWIDTH 12000 0
DWIDTH 12 0
BBX 12 20 0 -3
BITMAP
0000
0000
0000
0000
3060
3060
3060
3060
3060
3060
3060
3060
3060
3060
3060
18C0
0F80
0000
0000
0000
ENDCHAR
STARTCHAR 86
ENCODING 86
SWIDTH 12000 0
DWIDTH 12 0
BBX 12 20 0 -3
BITMAP
0000
0000
0000
0000
3030
3030
3030
3030
3030
3030
1860
1860
1860
0CC0
0CC0
0780
0300
0000
0000
0000
ENDCHAR
STARTCHAR 87
ENCODING 87
SWIDTH 12000 0
DWIDTH 12 0
BBX 12 20 0 -3
BITMAP
0000
0000
0000
0000
3030
3030
3030
3030
3030
3330
3330
3330
3330
3330
37B0
1CE0
1860
0000
0000
0000
ENDCHAR
STARTCHAR 88
ENCODING 88
SWIDTH 12000 0
DWIDTH 12 0
BBX 12 20 0 -3
BITMAP
0000
0000
0000
0000
3030
3030
1860
1860
0CC0
0780
0300
0780
0CC0
1860
1860
3030
3030
0000
0000
0000
ENDCHAR
STARTCHAR 89
ENCODING 89
SWIDTH 12000 0
DWIDTH 12 0
BBX 12 20 0 -3
BITMAP
0000
0000
0000
0000
3030
3030
3030
1860
1860
0CC0
0780
0300
0300
0300
0300
0300
0300
0000
0000
0000
ENDCHAR
STARTCHAR 90
ENCODING 90
SWIDTH 12000 0
DWIDTH 12 0
BBX 12 20 0 -3
BITMAP
0000
0000
0000
0000
3FF0
0030
0030
0060
00C0
0180
0300
0600
0C00
1800
3000
3000
3FF0
0000
0000
0000
ENDCHAR
STARTCHAR 91
ENCODING 91
SWIDTH 12000 0
DWIDTH 12 0
BBX 12 20 0 -3
BITMAP
0000
0000
0000
0F80
0C00
0C00
0C00
0C00
0C00
0C00
0C00
0C00
0C00
0C00
0C00
0C00
0C00
0F80
0000
0000
ENDCHAR
STARTCHAR 92
ENCODING 92
SWIDTH 12000 0
DWIDTH 12 0
BBX 12 20 0 -3
BITMAP
0000
0000
0000
1800
1800
0C00
0C00
0600
0600
0300
0300
0180
0180
00C0
00C0
0060
0060
0000
0000
0000
ENDCHAR
STARTCHAR 93
ENCODING 93
SWIDTH 12000 0
DWIDTH 12 0
BBX 12 20 0 -3
BITMAP
0000
0000
0000
0F80
0180
0180
0180
0180
0180
0180
0180
0180
0180
0180
0180
0180
0180
0F80
0000
0000
ENDCHAR
STARTCHAR 94
ENCODING 94
SWIDTH 12000 0
DWIDTH 12 0
BBX 12 20 0 -3
BITMAP
0000
0000
0700
0D80
18C0
3060
0000
0000
0000
0000
0000
0000
0000
0000
0000
0000
0000
0000
0000
0000
ENDCHAR
STARTCHAR 95
ENCODING 95
SWIDTH 12000 0
DWIDTH 12 0
BBX 12 20 0 -3
BITMAP
0000
0000
0000
0000
0000
0000
0000
0000
0000
0000
0000
0000
0000
0000
0000
0000
0000
0000
0000
FFF0
ENDCHAR
STARTCHAR 96
ENCODING 96
SWIDTH 12000 0
DWIDTH 12 0
BBX 12 20 0 -3
BITMAP
0000
0000
0C00
0600
0300
0180
0000
0000
0000
0000
0000
0000
0000
0000
0000
0000
0000
0000
0000
0000
ENDCHAR
STARTCHAR 97
ENCODING 97
SWIDTH 12000 0
DWIDTH 12 0
BBX 12 20 0 -3
BITMAP
0000
0000
0000
0000
0000
0000
0000
0000
1F80
00C0
0060
0FE0
1860
3060
3060
18E0
0F60
0000
0000
0000
ENDCHAR
STARTCHAR 98
ENCODING 98
SWIDTH 12000 0
DWIDTH 12 0
BBX 12 20 0 -3
BITMAP
0000
0000
0000
0000
3000
3000
3000
3000
3780
38C0
3060
3060
3060
3060
3060
38C0
3780
0000
0000
0000
ENDCHAR
STARTCHAR 99
ENCODING 99
SWIDTH 12000 0
DWIDTH 12 0
BBX 12 20 0 -3
BITMAP
0000
0000
0000
0000
0000
0000
0000
0000
0FC0
1860
3000
3000
3000
3000
3000
1860
0FC0
0000
0000
0000
ENDCHAR
STARTCHAR 100
ENCODING 100
SWIDTH 12000 0
DWIDTH 12 0
BBX 12 20 0 -3
BITMAP
0000
0000
0000
0000
0060
0060
0060
0060
0F60
18E0
3060
3060
3060
3060
3060
18E0
0F60
0000
0000
0000
ENDCHAR
STARTCHAR 101
ENCODING 101
SWIDTH 12000 0
DWIDTH 12 0
BBX 12 20 0 -3
BITMAP
0000
0000
0000
0000
0000
0000
0000
0000
0F80
18C0
3060
3060
3FE0
3000
3000
1800
0FC0
0000
0000
0000
ENDCHAR
STARTCHAR 102
ENCODING 102
SWIDTH 12000 0
DWIDTH 12 0
BBX 12 20 0 -3
BITMAP
0000
0000
0000
0000
03C0
0600
0600
0600
1FC0
0600
0600
0600
0600
0600
0600
0600
0600
0000
0000
0000
ENDCHAR
STARTCHAR 103
ENCODING 103
SWIDTH 12000 0
DWIDTH 12 0
BBX 12 20 0 -3
BITMAP
0000
0000
0000
0000
0000
0000
0000
0000
0F60
18E0
3060
3060
3060
3060
3060
18E0
0F60
0060
00C0
1F80
ENDCHAR
STARTCHAR 104
ENCODING 104
SWIDTH 12000 0
DWIDTH 12 0
BBX 12 20 0 -3
BITMAP
0000
0000
0000
0000
3000
3000
3000
3000
3780
38C0
3060
3060
3060
3060
3060
3060
3060
0000
0000
0000
ENDCHAR
STARTCHAR 105
ENCODING 105
SWIDTH 12000 0
DWIDTH 12 0
BBX 12 20 0 -3
BITMAP
0000
0000
0000
0000
0300
0300
0000
0000
0F00
0300
0300
0300
0300
0300
0300
0300
0FC0
0000
0000
0000
ENDCHAR
STARTCHAR 106
ENCODING 106
SWIDTH 12000 0
DWIDTH 12 0
BBX 12 20 0 -3
BITMAP
0000
0000
0000
0000
0300
0300
0000
0000
0F00
0300
0300
0300
0300
0300
0300
0300
0300
0300
0600
3C00
ENDCHAR
STARTCHAR 107
ENCODING 107
SWIDTH 12000 0
DWIDTH 12 0
BBX 12 20 0 -3
BITMAP
0000
0000
0000
0000
3000
3000
3000
3000
30C0
3180
3300
3E00
3E00
3300
3180
30C0
3060
0000
0000
0000
ENDCHAR
STARTCHAR 108
ENCODING 108
SWIDTH 12000 0
DWIDTH 12 0
BBX 12 20 0 -3
BITMAP
0000
0000
0000
0000
0F00
0300
0300
0300
0300
0300
0300
0300
0300
0300
0300
0300
0FC0
0000
0000
0000
ENDCHAR
STARTCHAR 109
ENCODING 109
SWIDTH 12000 0
DWIDTH 12 0
BBX 12 20 0 -3
BITMAP
0000
0000
0000
0000
0000
0000
0000
0000
3660
3BB0
3330
3330
3330
3330
3330
3330
3330
0000
0000
0000
ENDCHAR
STARTCHAR 110
ENCODING 110
SWIDTH 12000 0
DWIDTH 12 0
BBX 12 20 0 -3
BITMAP
0000
0000
0000
0000
0000
0000
0000
0000
3780
38C0
3060
3060
3060
3060
3060
3060
3060
0000
0000
0000
ENDCHAR
STARTCHAR 111
ENCODING 111
SWIDTH 12000 0
DWIDTH 12 0
BBX 12 20 0 -3
BITMAP
0000
0000
0000
0000
0000
0000
0000
0000
0F80
18C0
3060
3060
3060
3060
3060
18C0
0F80
0000
0000
0000
ENDCHAR
STARTCHAR 112
ENCODING 112
SWIDTH 12000 0
DWIDTH 12 0
BBX 12 20 0 -3
BITMAP
0000
0000
0000
0000
0000
0000
0000
0000
3780
38C0
3060
3060
3060
3060
3060
38C0
3780
3000
3000
3000
ENDCHAR
STARTCHAR 113
ENCODING 113
SWIDTH 12000 0
DWIDTH 12 0
BBX 12 20 0 -3
BITMAP
0000
0000
0000
0000
0000
0000
0000
0000
0F60
18E0
3060
3060
3060
3060
3060
18E0
0F60
0060
0060
0060
ENDCHAR
STARTCHAR 114
ENCODING 114
SWIDTH 12000 0
DWIDTH 12 0
BBX 12 20 0 -3
BITMAP
0000
0000
0000
0000
0000
0000
0000
0000
37C0
3C60
3800
3000
3000
3000
3000
3000
3000
0000
0000
0000
ENDCHAR
STARTCHAR 115
ENCODING 115
SWIDTH 12000 0
DWIDTH 12 0
BBX 12 20 0 -3
BITMAP
0000
0000
0000
0000
0000
0000
0000
0000
1FC0
3060
3000
3000
1FC0
0060
0060
3060
1FC0
0000
0000
0000
ENDCHAR
STARTCHAR 116
ENCODING 116
SWIDTH 12000 0
DWIDTH 12 0
BBX 12 20 0 -3
BITMAP
0000
0000
0000
0000
0600
0600
0600
0600
1FC0
0600
0600
0600
0600
0600
0600
0600
03C0
0000
0000
0000
ENDCHAR
STARTCHAR 117
ENCODING 117
SWIDTH 12000 0
DWIDTH 12 0
BBX 12 20 0 -3
BITMAP
0000
0000
0000
0000
0000
0000
0000
0000
3060
3060
3060
3060
3060
3060
3060
18E0
0F60
0000
0000
0000
ENDCHAR
STARTCHAR 118
ENCODING 118
SWIDTH 12000 0
DWIDTH 12 0
BBX 12 20 0 -3
BITMAP
0000
0000
0000
0000
0000
0000
0000
0000
3030
3030
1860
1860
0CC0
0CC0
0780
0780
0300
0000
0000
0000
ENDCHAR
STARTCHAR 119
ENCODING 119
SWIDTH 12000 0
DWIDTH 12 0
BBX 12 20 0 -3
BITMAP
0000
0000
0000
0000
0000
0000
0000
0000
3030
3030
3030
3030
3330
3330
37B0
1CE0
1860
0000
0000
0000
ENDCHAR
STARTCHAR 120
ENCODING 120
SWIDTH 12000 0
DWIDTH 12 0
BBX 12 20 0 -3
BITMAP
0000
0000
0000
0000
0000
0000
0000
0000
3060
3060
18C0
0F80
0700
0F80
18C0
3060
3060
0000
0000
0000
ENDCHAR
STARTCHAR 121
ENCODING 121
SWIDTH 12000 0
DWIDTH 12 0
BBX 12 20 0 -3
BITMAP
0000
0000
0000
0000
0000
0000
0000
0000
3060
3060
3060
3060
3060
3060
3060
18E0
0F60
0060
00C0
1F80
ENDCHAR
STARTCHAR 122
ENCODING 122
SWIDTH 12000 0
DWIDTH 12 0
BBX 12 20 0 -3
BITMAP
0000
0000
0000
0000
0000
0000
0000
0000
3FE0
00C0
0180
0300
0600
0C00
1800
3000
3FE0
0000
0000
0000
ENDCHAR
STARTCHAR 123
ENCODING 123
SWIDTH 12000 0
DWIDTH 12 0
BBX 12 20 0 -3
BITMAP
0000
0000
0000
0380
0600
0600
0600
0600
0600
0600
0C00
0600
0600
0600
0600
0600
0600
0380
0000
0000
ENDCHAR
STARTCHAR 124
ENCODING 124
SWIDTH 12000 0
DWIDTH 12 0
BBX 12 20 0 -3
BITMAP
0000
0000
0000
0600
0600
0600
0600
0600
0600
0600
0000
0600
0600
0600
0600
0600
0600
0600
0000
0000
ENDCHAR
STARTCHAR 125
ENCODING 125
SWIDTH 12000 0
DWIDTH 12 0
BBX 12 20 0 -3
BITMAP
0000
0000
0000
1C00
0600
0600
0600
0600
0600
0600
0300
0600
0600
0600
0600
0600
0600
1C00
0000
0000
ENDCHAR
STARTCHAR 126
ENCODING 126
SWIDTH 12000 0
DWIDTH 12 0
BBX 12 20 0 -3
BITMAP
0000
0000
0E30
1B60
31C0
0000
0000
0000
0000
0000
0000
0000
0000
0000
0000
0000
0000
0000
0000
0000
ENDCHAR
STARTCHAR 127
ENCODING 127
SWIDTH 12000 0
DWIDTH 12 0
BBX 12 20 0 -3
BITMAP
0000
0000
0000
0000
0000
0000
0000
0200
0700
0D80
18C0
3060
3060
3060
3060
3060
3FE0
0000
0000
0000
ENDCHAR
STARTCHAR 128
ENCODING 128
SWIDTH 12000 0
DWIDTH 12 0
BBX 12 20 0 -3
BITMAP
0000
0000
0000
0000
0F80
18C0
3060
3000
3000
3000
3000
3000
3000
3000
3060
18C0
0F80
0300
0180
0700
ENDCHAR
STARTCHAR 129
ENCODING 129
SWIDTH 12000 0
DWIDTH 12 0
BBX 12 20 0 -3
BITMAP
0000
0000
0000
0000
0CC0
0CC0
0000
0000
3060
3060
3060
3060
3060
3060
3060
18E0
0F60
0000
0000
0000
ENDCHAR
STARTCHAR 130
ENCODING 130
SWIDTH 12000 0
DWIDTH 12 0
BBX 12 20 0 -3
BITMAP
0000
0000
0000
0000
0180
0300
0600
0000
0F80
18C0
3060
3060
3FE0
3000
3000
1800
0FC0
0000
0000
0000
ENDCHAR
STARTCHAR 131
ENCODING 131
SWIDTH 12000 0
DWIDTH 12 0
BBX 12 20 0 -3
BITMAP
0000
0000
0000
0000
0200
0700
0D80
0000
1F80
00C0
0060
0FE0
1860
3060
3060
18E0
0F60
0000
0000
0000
ENDCHAR
STARTCHAR 132
ENCODING 132
SWIDTH 12000 0
DWIDTH 12 0
BBX 12 20 0 -3
BITMAP
0000
0000
0000
0000
1980
1980
0000
0000
1F80
00C0
0060
0FE0
1860
3060
3060
18E0
0F60
0000
0000
0000
ENDCHAR
STARTCHAR 133
ENCODING 133
SWIDTH 12000 0
DWIDTH 12 0
BBX 12 20 0 -3
BITMAP
0000
0000
0000
0000
0C00
0600
0300
0000
1F80
00C0
0060
0FE0
1860
3060
3060
18E0
0F60
0000
0000
0000
ENDCHAR
STARTCHAR 134
ENCODING 134
SWIDTH 12000 0
DWIDTH 12 0
BBX 12 20 0 -3
BITMAP
0000
0000
0000
0000
0600
0600
0000
0000
1F80
00C0
0060
0FE0
1860
3060
3060
18E0
0F60
0000
0000
0000
ENDCHAR
STARTCHAR 135
ENCODING 135
SWIDTH 12000 0
DWIDTH 12 0
BBX 12 20 0 -3
BITMAP
0000
0000
0000
0000
0000
0000
0000
0000
0FC0
1860
3000
3000
3000
3000
3000
1860
0FC0
0300
0180
0700
ENDCHAR
STARTCHAR 136
ENCODING 136
SWIDTH 12000 0
DWIDTH 12 0
BBX 12 20 0 -3
BITMAP
0000
0000
0000
0000
0200
0700
0D80
0000
0F80
18C0
3060
3060
3FE0
3000
3000
1800
0FC0
0000
0000
0000
ENDCHAR
STARTCHAR 137
ENCODING 137
SWIDTH 12000 0
DWIDTH 12 0
BBX 12 20 0 -3
BITMAP
0000
0000
0000
0000
0CC0
0CC0
0000
0000
0F80
18C0
3060
3060
3FE0
3000
3000
1800
0FC0
0000
0000
0000
ENDCHAR
STARTCHAR 138
ENCODING 138
SWIDTH 12000 0
DWIDTH 12 0
BBX 12 20 0 -3
BITMAP
0000
0000
0000
0000
0C00
0600
0300
0000
0F80
18C0
3060
3060
3FE0
3000
3000
1800
0FC0
0000
0000
0000
ENDCHAR
STARTCHAR 139
ENCODING 139
SWIDTH 12000 0
DWIDTH 12 0
BBX 12 20 0 -3
BITMAP
0000
0000
0000
0000
0CC0
0CC0
0000
0000
1F00
0300
0300
0300
0300
0300
0300
0300
1FE0
0000
0000
0000
ENDCHAR
STARTCHAR 140
ENCODING 140
SWIDTH 12000 0
DWIDTH 12 0
BBX 12 20 0 -3
BITMAP
0000
0000
0000
0600
0F00
1980
0000
0000
1F00
0300
0300
0300
0300
0300
0300
0300
1FE0
0000
0000
0000
ENDCHAR
STARTCHAR 141
ENCODING 141
SWIDTH 12000 0
DWIDTH 12 0
BBX 12 20 0 -3
BITMAP
0000
0000
0000
0C00
0600
0300
0000
0000
1F00
0300
0300
0300
0300
0300
0300
0300
1FE0
0000
0000
0000
ENDCHAR
STARTCHAR 142
ENCODING 142
SWIDTH 12000 0
DWIDTH 12 0
BBX 12 20 0 -3
BITMAP
0000
18C0
18C0
0000
0700
0D80
18C0
3060
3060
3060
3FE0
3060
3060
3060
3060
3060
3060
0000
0000
0000
ENDCHAR
STARTCHAR 143
ENCODING 143
SWIDTH 12000 0
DWIDTH 12 0
BBX 12 20 0 -3
BITMAP
0000
0300
0300
0000
0700
0D80
18C0
3060
3060
3060
3FE0
3060
3060
3060
3060
3060
3060
0000
0000
0000
ENDCHAR
STARTCHAR 144
ENCODING 144
SWIDTH 12000 0
DWIDTH 12 0
BBX 12 20 0 -3
BITMAP
0000
0180
0300
0600
0000
3FE0
3000
3000
3000
3000
3F80
3000
3000
3000
3000
3000
3FE0
0000
0000
0000
ENDCHAR
STARTCHAR 145
ENCODING 145
SWIDTH 12000 0
DWIDTH 12 0
BBX 12 20 0 -3
BITMAP
0000
0000
0000
0000
0000
0000
0000
0000
1FE0
3330
0330
0330
1FE0
3300
3300
3330
1FE0
0000
0000
0000
ENDCHAR
STARTCHAR 146
ENCODING 146
SWIDTH 12000 0
DWIDTH 12 0
BBX 12 20 0 -3
BITMAP
0000
0000
0000
0000
03F0
0780
0D80
1980
3180
3180
31F0
3F80
3180
3180
3180
3180
31F0
0000
0000
0000
ENDCHAR
STARTCHAR 147
ENCODING 147
SWIDTH 12000 0
DWIDTH 12 0
BBX 12 20 0 -3
BITMAP
0000
0000
0000
0000
0700
0D80
18C0
0000
0F80
18C0
3060
3060
3060
3060
3060
18C0
0F80
0000
0000
0000
ENDCHAR
STARTCHAR 148
ENCODING 148
SWIDTH 12000 0
DWIDTH 12 0
BBX 12 20 0 -3
BITMAP
0000
0000
0000
0000
18C0
18C0
0000
0000
0F80
18C0
3060
3060
3060
3060
3060
18C0
0F80
0000
0000
0000
ENDCHAR
STARTCHAR 149
ENCODING 149
SWIDTH 12000 0
DWIDTH 12 0
BBX 12 20 0 -3
BITMAP
0000
0000
0000
0000
0C00
0600
0300
0000
0F80
18C0
3060
3060
3060
3060
3060
18C0
0F80
0000
0000
0000
ENDCHAR
STARTCHAR 150
ENCODING 150
SWIDTH 12000 0
DWIDTH 12 0
BBX 12 20 0 -3
BITMAP
0000
0000
0000
0000
0700
0D80
18C0
0000
3060
3060
3060
3060
3060
3060
3060
18E0
0F60
0000
0000
0000
ENDCHAR
STARTCHAR 151
ENCODING 151
SWIDTH 12000 0
DWIDTH 12 0
BBX 12 20 0 -3
BITMAP
0000
0000
0000
0000
0C00
0600
0300
0000
3060
3060
3060
3060
3060
3060
3060
18E0
0F60
0000
0000
0000
ENDCHAR
STARTCHAR 152
ENCODING 152
SWIDTH 12000 0
DWIDTH 12 0
BBX 12 20 0 -3
BITMAP
0000
0000
0000
0000
18C0
18C0
0000
0000
3060
3060
3060
3060
3060
3060
3060
18E0
0F60
0060
00C0
1F80
ENDCHAR
STARTCHAR 153
ENCODING 153
SWIDTH 12000 0
DWIDTH 12 0
BBX 12 20 0 -3
BITMAP
0000
18C0
18C0
0000
0F80
18C0
3060
3060
3060
3060
3060
3060
3060
3060
3060
18C0
0F80
0000
0000
0000
ENDCHAR
STARTCHAR 154
ENCODING 154
SWIDTH 12000 0
DWIDTH 12 0
BBX 12 20 0 -3
BITMAP
0000
18C0
18C0
0000
3060
3060
3060
3060
3060
3060
3060
3060
3060
3060
3060
18C0
0F80
0000
0000
0000
ENDCHAR
STARTCHAR 155
ENCODING 155
SWIDTH 12000 0
DWIDTH 12 0
BBX 12 20 0 -3
BITMAP
0000
0000
0000
0000
0000
0300
0300
0300
0FC0
1860
3000
3000
3000
3000
3000
1860
0FC0
0300
0300
0300
ENDCHAR
STARTCHAR 156
ENCODING 156
SWIDTH 12000 0
DWIDTH 12 0
BBX 12 20 0 -3
BITMAP
0000
0000
0000
0000
0780
0CC0
1860
1800
1800
1800
3F00
1800
1800
1800
1800
1800
3FE0
0000
0000
0000
ENDCHAR
STARTCHAR 157
ENCODING 157
SWIDTH 12000 0
DWIDTH 12 0
BBX 12 20 0 -3
BITMAP
0000
0000
0000
0000
3030
3030
3030
1860
1860
0CC0
0780
1FE0
0300
0300
1FE0
0300
0300
0000
0000
0000
ENDCHAR
STARTCHAR 158
ENCODING 158
SWIDTH 12000 0
DWIDTH 12 0
BBX 12 20 0 -3
BITMAP
0000
0000
0000
0000
3F80
30C0
3060
3060
3060
3060
30C0
3F80
3000
3180
3180
33C0
3180
0180
0180
00E0
ENDCHAR
STARTCHAR 159
ENCODING 159
SWIDTH 12000 0
DWIDTH 12 0
BBX 12 20 0 -3
BITMAP
0000
0000
0000
0000
01C0
0300
0600
0600
0600
0600
3FC0
0600
0600
0600
0600
0600
0600
0600
0C00
3800
ENDCHAR
STARTCHAR 160
ENCODING 160
SWIDTH 12000 0
DWIDTH 12 0
BBX 12 20 0 -3
BITMAP
0000
0000
0000
0000
0180
0300
0600
0000
1F80
00C0
0060
0FE0
1860
3060
3060
18E0
0F60
0000
0000
0000
ENDCHAR
STARTCHAR 161
ENCODING 161
SWIDTH 12000 0
DWIDTH 12 0
BBX 12 20 0 -3
BITMAP
0000
0000
0000
0000
0300
0600
0C00
0000
1F00
0300
0300
0300
0300
0300
0300
0300
1FE0
0000
0000
0000
ENDCHAR
STARTCHAR 162
ENCODING 162
SWIDTH 12000 0
DWIDTH 12 0
BBX 12 20 0 -3
BITMAP
0000
0000
0000
0000
0300
0600
0C00
0000
0F80
18C0
3060
3060
3060
3060
3060
18C0
0F80
0000
0000
0000
ENDCHAR
STARTCHAR 163
ENCODING 163
SWIDTH 12000 0
DWIDTH 12 0
BBX 12 20 0 -3
BITMAP
0000
0000
0000
0000
0300
0600
0C00
0000
3060
3060
3060
3060
3060
3060
3060
18E0
0F60
0000
0000
0000
ENDCHAR
STARTCHAR 164
ENCODING 164
SWIDTH 12000 0
DWIDTH 12 0
BBX 12 20 0 -3
BITMAP
0000
0000
0000
0E30
1B60
31C0
0000
0000
3780
38C0
3060
3060
3060
3060
3060
3060
3060
0000
0000
0000
ENDCHAR
STARTCHAR 165
ENCODING 165
SWIDTH 12000 0
DWIDTH 12 0
BBX 12 20 0 -3
BITMAP
0000
0000
0E30
1B60
31C0
0000
0000
3060
3060
3860
3C60
3660
3360
31E0
30E0
3060
3060
0000
0000
0000
ENDCHAR
STARTCHAR 166
ENCODING 166
SWIDTH 12000 0
DWIDTH 12 0
BBX 12 20 0 -3
BITMAP
0000
0000
0000
0000
0F80
00C0
0FC0
18C0
18C0
0FC0
0000
3FE0
0000
0000
0000
0000
0000
0000
0000
0000
ENDCHAR
STARTCHAR 167
ENCODING 167
SWIDTH 12000 0
DWIDTH 12 0
BBX 12 20 0 -3
BITMAP
0000
0000
0000
0000
0F80
18C0
18C0
18C0
18C0
0F80
0000
3FE0
0000
0000
0000
0000
0000
0000
0000
0000
ENDCHAR
STARTCHAR 168
ENCODING 168
SWIDTH 12000 0
DWIDTH 12 0
BBX 12 20 0 -3
BITMAP
0000
0000
0000
0300
0300
0000
0000
0300
0300
0600
0C00
1800
3000
3060
3060
18C0
0F80
0000
0000
0000
ENDCHAR
STARTCHAR 169
ENCODING 169
SWIDTH 12000 0
DWIDTH 12 0
BBX 12 20 0 -3
BITMAP
0000
0000
0000
0000
0000
0000
0000
0000
0000
0000
3FF0
3000
3000
3000
3000
0000
0000
0000
0000
0000
ENDCHAR
STARTCHAR 170
ENCODING 170
SWIDTH 12000 0
DWIDTH 12 0
BBX 12 20 0 -3
BITMAP
0000
0000
0000
0000
0000
0000
0000
0000
0000
0000
3FF0
0030
0030
0030
0030
0000
0000
0000
0000
0000
ENDCHAR
STARTCHAR 171
ENCODING 171
SWIDTH 12000 0
DWIDTH 12 0
BBX 12 20 0 -3
BITMAP
0000
0000
0000
0000
0600
0E00
0600
0600
0600
0000
3FC0
0000
0700
0980
0180
0300
0600
0F80
0000
0000
ENDCHAR
STARTCHAR 172
ENCODING 172
SWIDTH 12000 0
DWIDTH 12 0
BBX 12 20 0 -3
BITMAP
0000
0000
0000
0000
0600
0E00
0600
0600
0600
0000
3FC0
0000
1800
1B00
1B00
1F00
0300
0300
0000
0000
ENDCHAR
STARTCHAR 173
ENCODING 173
SWIDTH 12000 0
DWIDTH 12 0
BBX 12 20 0 -3
BITMAP
0000
0000
0000
0600
0600
0000
0000
0600
0600
0600
0600
0600
0600
0600
0600
0600
0600
0000
0000
0000
ENDCHAR
STARTCHAR 174
ENCODING 174
SWIDTH 12000 0
DWIDTH 12 0
BBX 12 20 0 -3
BITMAP
0000
0000
0000
0000
0000
0000
0000
0660
0CC0
1980
3300
3300
1980
0CC0
0660
0000
0000
0000
0000
0000
ENDCHAR
STARTCHAR 175
ENCODING 175
SWIDTH 12000 0
DWIDTH 12 0
BBX 12 20 0 -3
BITMAP
0000
0000
0000
0000
0000
0000
0000
3300
1980
0CC0
0660
0660
0CC0
1980
3300
0000
0000
0000
0000
0000
ENDCHAR
STARTCHAR 176
ENCODING 176
SWIDTH 12000 0
DWIDTH 12 0
BBX 12 20 0 -3
BITMAP
8880
0000
2220
0000
8880
0000
2220
0000
8880
0000
2220
0000
8880
0000
2220
0000
8880
0000
2220
0000
ENDCHAR
STARTCHAR 177
ENCODING 177
SWIDTH 12000 0
DWIDTH 12 0
BBX 12 20 0 -3
BITMAP
8880
4440
2220
1110
8880
4440
2220
1110
8880
4440
2220
1110
8880
4440
2220
1110
8880
4440
2220
1110
ENDCHAR
STARTCHAR 178
ENCODING 178
SWIDTH 12000 0
DWIDTH 12 0
BBX 12 20 0 -3
BITMAP
AAA0
5550
AAA0
5550
AAA0
5550
AAA0
5550
AAA0
5550
AAA0
5550
AAA0
5550
AAA0
5550
AAA0
5550
AAA0
5550
ENDCHAR
STARTCHAR 179
ENCODING 179
SWIDTH 12000 0
DWIDTH 12 0
BBX 12 20 0 -3
BITMAP
0600
0600
0600
0600
0600
0600
0600
0600
0600
0600
0600
0600
0600
0600
0600
0600
0600
0600
0600
0600
ENDCHAR
STARTCHAR 180
ENCODING 180
SWIDTH 12000 0
DWIDTH 12 0
BBX 12 20 0 -3
BITMAP
0600
0600
0600
0600
0600
0600
0600
0600
0600
FE00
0600
0600
0600
0600
0600
0600
0600
0600
0600
0600
ENDCHAR
STARTCHAR 181
ENCODING 181
SWIDTH 12000 0
DWIDTH 12 0
BBX 12 20 0 -3
BITMAP
0600
0600
0600
0600
0600
0600
0600
0600
FE00
0600
0600
FE00
0600
0600
0600
0600
0600
0600
0600
0600
ENDCHAR
STARTCHAR 182
ENCODING 182
SWIDTH 12000 0
DWIDTH 12 0
BBX 12 20 0 -3
BITMAP
1980
1980
1980
1980
1980
1980
1980
1980
1980
F980
1980
1980
1980
1980
1980
1980
1980
1980
1980
1980
ENDCHAR
STARTCHAR 183
ENCODING 183
SWIDTH 12000 0
DWIDTH 12 0
BBX 12 20 0 -3
BITMAP
0000
0000
0000
0000
0000
0000
0000
0000
0000
FF80
1980
1980
1980
1980
1980
1980
1980
1980
1980
1980
ENDCHAR
STARTCHAR 184
ENCODING 184
SWIDTH 12000 0
DWIDTH 12 0
BBX 12 20 0 -3
BITMAP
0000
0000
0000
0000
0000
0000
0000
0000
FE00
0600
0600
0600
FE00
0600
0600
0600
0600
0600
0600
0600
ENDCHAR
STARTCHAR 185
ENCODING 185
SWIDTH 12000 0
DWIDTH 12 0
BBX 12 20 0 -3
BITMAP
1980
1980
1980
1980
1980
1980
1980
1980
F980
1980
1980
F980
1980
1980
1980
1980
1980
1980
1980
1980
ENDCHAR
STARTCHAR 186
ENCODING 186
SWIDTH 12000 0
DWIDTH 12 0
BBX 12 20 0 -3
BITMAP
1980
1980
1980
1980
1980
1980
1980
1980
1980
1980
1980
1980
1980
1980
1980
1980
1980
1980
1980
1980
ENDCHAR
STARTCHAR 187
ENCODING 187
SWIDTH 12000 0
DWIDTH 12 0
BBX 12 20 0 -3
BITMAP
0000
0000
0000
0000
0000
0000
0000
0000
FF80
0180
0180
F980
1980
1980
1980
1980
1980
1980
1980
1980
ENDCHAR
STARTCHAR 188
ENCODING 188
SWIDTH 12000 0
DWIDTH 12 0
BBX 12 20 0 -3
BITMAP
1980
1980
1980
1980
1980
1980
1980
1980
F980
0180
0180
FF80
0000
0000
0000
0000
0000
0000
0000
0000
ENDCHAR
STARTCHAR 189
ENCODING 189
SWIDTH 12000 0
DWIDTH 12 0
BBX 12 20 0 -3
BITMAP
1980
1980
1980
1980
1980
1980
1980
1980
1980
FF80
0000
0000
0000
0000
0000
0000
0000
0000
0000
0000
ENDCHAR
STARTCHAR 190
ENCODING 190
SWIDTH 12000 0
DWIDTH 12 0
BBX 12 20 0 -3
BITMAP
0600
0600
0600
0600
0600
0600
0600
0600
FE00
0600
0600
FE00
0000
0000
0000
0000
0000
0000
0000
0000
ENDCHAR
STARTCHAR 191
ENCODING 191
SWIDTH 12000 0
DWIDTH 12 0
BBX 12 20 0 -3
BITMAP
0000
0000
0000
0000
0000
0000
0000
0000
0000
FE00
0600
0600
0600
0600
0600
0600
0600
0600
0600
0600
ENDCHAR
STARTCHAR 192
ENCODING 192
SWIDTH 12000 0
DWIDTH 12 0
BBX 12 20 0 -3
BITMAP
0600
0600
0600
0600
0600
0600
0600
0600
0600
07F0
0000
0000
0000
0000
0000
0000
0000
0000
0000
0000
ENDCHAR
STARTCHAR 193
ENCODING 193
SWIDTH 12000 0
DWIDTH 12 0
BBX 12 20 0 -3
BITMAP
0600
0600
0600
0600
0600
0600
0600
0600
0600
FFF0
0000
0000
0000
0000
0000
0000
0000
0000
0000
0000
ENDCHAR
STARTCHAR 194
ENCODING 194
SWIDTH 12000 0
DWIDTH 12 0
BBX 12 20 0 -3
BITMAP
0000
0000
0000
0000
0000
0000
0000
0000
0000
FFF0
0600
0600
0600
0600
0600
0600
0600
0600
0600
0600
ENDCHAR
STARTCHAR 195
ENCODING 195
SWIDTH 12000 0
DWIDTH 12 0
BBX 12 20 0 -3
BITMAP
0600
0600
0600
0600
0600
0600
0600
0600
0600
07F0
0600
0600
0600
0600
0600
0600
0600
0600
0600
0600
ENDCHAR
STARTCHAR 196
ENCODING 196
SWIDTH 12000 0
DWIDTH 12 0
BBX 12 20 0 -3
BITMAP
0000
0000
0000
0000
0000
0000
0000
0000
0000
FFF0
0000
0000
0000
0000
0000
0000
0000
0000
0000
0000
ENDCHAR
STARTCHAR 197
ENCODING 197
SWIDTH 12000 0
DWIDTH 12 0
BBX 12 20 0 -3
BITMAP
0600
0600
0600
0600
0600
0600
0600
0600
0600
FFF0
0600
0600
0600
0600
0600
0600
0600
0600
0600
0600
ENDCHAR
STARTCHAR 198
ENCODING 198
SWIDTH 12000 0
DWIDTH 12 0
BBX 12 20 0 -3
BITMAP
0600
0600
0600
0600
0600
0600
0600
07F0
0600
0600
0600
07F0
0600
0600
0600
0600
0600
0600
0600
0600
ENDCHAR
STARTCHAR 199
ENCODING 199
SWIDTH 12000 0
DWIDTH 12 0
BBX 12 20 0 -3
BITMAP
1980
1980
1980
1980
1980
1980
1980
1980
1980
19F0
1980
1980
1980
1980
1980
1980
1980
1980
1980
1980
ENDCHAR
STARTCHAR 200
ENCODING 200
SWIDTH 12000 0
DWIDTH 12 0
BBX 12 20 0 -3
BITMAP
1980
1980
1980
1980
1980
1980
1980
1980
19F0
1800
1800
1FF0
0000
0000
0000
0000
0000
0000
0000
0000
ENDCHAR
STARTCHAR 201
ENCODING 201
SWIDTH 12000 0
DWIDTH 12 0
BBX 12 20 0 -3
BITMAP
0000
0000
0000
0000
0000
0000
0000
0000
1FF0
1800
1800
19F0
1980
1980
1980
1980
1980
1980
1980
1980
ENDCHAR
STARTCHAR 202
ENCODING 202
SWIDTH 12000 0
DWIDTH 12 0
BBX 12 20 0 -3
BITMAP
1980
1980
1980
1980
1980
1980
1980
1980
F9F0
0000
0000
FFF0
0000
0000
0000
0000
0000
0000
0000
0000
ENDCHAR
STARTCHAR 203
ENCODING 203
SWIDTH 12000 0
DWIDTH 12 0
BBX 12 20 0 -3
BITMAP
0000
0000
0000
0000
0000
0000
0000
0000
FFF0
0000
0000
F9F0
1980
1980
1980
1980
1980
1980
1980
1980
ENDCHAR
STARTCHAR 204
ENCODING 204
SWIDTH 12000 0
DWIDTH 12 0
BBX 12 20 0 -3
BITMAP
1980
1980
1980
1980
1980
1980
1980
1980
19F0
1800
1800
19F0
1980
1980
1980
1980
1980
1980
1980
1980
ENDCHAR
STARTCHAR 205
ENCODING 205
SWIDTH 12000 0
DWIDTH 12 0
BBX 12 20 0 -3
BITMAP
0000
0000
0000
0000
0000
0000
0000
0000
FFF0
0000
0000
FFF0
0000
0000
0000
0000
0000
0000
0000
0000
ENDCHAR
STARTCHAR 206
ENCODING 206
SWIDTH 12000 0
DWIDTH 12 0
BBX 12 20 0 -3
BITMAP
1980
1980
1980
1980
1980
1980
1980
1980
F9F0
0000
0000
F9F0
1980
1980
1980
1980
1980
1980
1980
1980
ENDCHAR
STARTCHAR 207
ENCODING 207
SWIDTH 12000 0
DWIDTH 12 0
BBX 12 20 0 -3
BITMAP
0600
0600
0600
0600
0600
0600
0600
0600
FFF0
0000
0000
FFF0
0000
0000
0000
0000
0000
0000
0000
0000
ENDCHAR
STARTCHAR 208
ENCODING 208
SWIDTH 12000 0
DWIDTH 12 0
BBX 12 20 0 -3
BITMAP
1980
1980
1980
1980
1980
1980
1980
1980
1980
FFF0
0000
0000
0000
0000
0000
0000
0000
0000
0000
0000
ENDCHAR
STARTCHAR 209
ENCODING 209
SWIDTH 12000 0
DWIDTH 12 0
BBX 12 20 0 -3
BITMAP
0000
0000
0000
0000
0000
0000
0000
0000
FFF0
0000
0000
FFF0
0600
0600
0600
0600
0600
0600
0600
0600
ENDCHAR
STARTCHAR 210
ENCODING 210
SWIDTH 12000 0
DWIDTH 12 0
BBX 12 20 0 -3
BITMAP
0000
0000
0000
0000
0000
0000
0000
0000
0000
FFF0
1980
1980
1980
1980
1980
1980
1980
1980
1980
1980
ENDCHAR
STARTCHAR 211
ENCODING 211
SWIDTH 12000 0
DWIDTH 12 0
BBX 12 20 0 -3
BITMAP
1980
1980
1980
1980
1980
1980
1980
1980
1980
1FF0
0000
0000
0000
0000
0000
0000
0000
0000
0000
0000
ENDCHAR
STARTCHAR 212
ENCODING 212
SWIDTH 12000 0
DWIDTH 12 0
BBX 12 20 0 -3
BITMAP
0600
0600
0600
0600
0600
0600
0600
0600
07F0
0600
0600
07F0
0000
0000
0000
0000
0000
0000
0000
0000
ENDCHAR
STARTCHAR 213
ENCODING 213
SWIDTH 12000 0
DWIDTH 12 0
BBX 12 20 0 -3
BITMAP
0000
0000
0000
0000
0000
0000
0000
0000
07F0
0600
0600
07F0
0600
0600
0600
0600
0600
0600
0600
0600
ENDCHAR
STARTCHAR 214
ENCODING 214
SWIDTH 12000 0
DWIDTH 12 0
BBX 12 20 0 -3
BITMAP
0000
0000
0000
0000
0000
0000
0000
0000
0000
1FF0
1980
1980
1980
1980
1980
1980
1980
1980
1980
1980
ENDCHAR
STARTCHAR 215
ENCODING 215
SWIDTH 12000 0
DWIDTH 12 0
BBX 12 20 0 -3
BITMAP
1980
1980
1980
1980
1980
1980
1980
1980
1980
F9F0
1980
1980
1980
1980
1980
1980
1980
1980
1980
1980
ENDCHAR
STARTCHAR 216
ENCODING 216
SWIDTH 12000 0
DWIDTH 12 0
BBX 12 20 0 -3
BITMAP
0600
0600
0600
0600
0600
0600
0600
0600
FFF0
0000
0000
FFF0
0600
0600
0600
0600
0600
0600
0600
0600
ENDCHAR
STARTCHAR 217
ENCODING 217
SWIDTH 12000 0
DWIDTH 12 0
BBX 12 20 0 -3
BITMAP
0600
0600
0600
0600
0600
0600
0600
0600
0600
FE00
0000
0000
0000
0000
0000
0000
0000
0000
0000
0000
ENDCHAR
STARTCHAR 218
ENCODING 218
SWIDTH 12000 0
DWIDTH 12 0
BBX 12 20 0 -3
BITMAP
0000
0000
0000
0000
0000
0000
0000
0000
0000
07F0
0600
0600
0600
0600
0600
0600
0600
0600
0600
0600
ENDCHAR
STARTCHAR 219
ENCODING 219
SWIDTH 12000 0
DWIDTH 12 0
BBX 12 20 0 -3
BITMAP
FFF0
FFF0
FFF0
FFF0
FFF0
FFF0
FFF0
FFF0
FFF0
FFF0
FFF0
FFF0
FFF0
FFF0
FFF0
FFF0
FFF0
FFF0
FFF0
FFF0
ENDCHAR
STARTCHAR 220
ENCODING 220
SWIDTH 12000 0
DWIDTH 12 0
BBX 12 20 0 -3
BITMAP
0000
0000
0000
0000
0000
0000
0000
0000
0000
0000
FFF0
FFF0
FFF0
FFF0
FFF0
FFF0
FFF0
FFF0
FFF0
FFF0
ENDCHAR
STARTCHAR 221
ENCODING 221
SWIDTH 12000 0
DWIDTH 12 0
BBX 12 20 0 -3
BITMAP
FC00
FC00
FC00
FC00
FC00
FC00
FC00
FC00
FC00
FC00
FC00
FC00
FC00
FC00
FC00
FC00
FC00
FC00
FC00
FC00
ENDCHAR
STARTCHAR 222
ENCODING 222
SWIDTH 12000 0
DWIDTH 12 0
BBX 12 20 0 -3
BITMAP
03F0
03F0
03F0
03F0
03F0
03F0
03F0
03F0
03F0
03F0
03F0
03F0
03F0
03F0
03F0
03F0
03F0
03F0
03F0
03F0
ENDCHAR
STARTCHAR 223
ENCODING 223
SWIDTH 12000 0
DWIDTH 12 0
BBX 12 20 0 -3
BITMAP
FFF0
FFF0
FFF0
FFF0
FFF0
FFF0
FFF0
FFF0
FFF0
FFF0
0000
0000
0000
0000
0000
0000
0000
0000
0000
0000
ENDCHAR
STARTCHAR 224
ENCODING 224
SWIDTH 12000 0
DWIDTH 12 0
BBX 12 20 0 -3
BITMAP
0000
0000
0000
0000
0000
0000
0000
0EC0
19C0
30C0
30C0
30C0
30C0
30C0
30C0
19C0
0E60
0000
0000
0000
ENDCHAR
STARTCHAR 225
ENCODING 225
SWIDTH 12000 0
DWIDTH 12 0
BBX 12 20 0 -3
BITMAP
0000
0000
0000
0000
1F00
3980
30C0
30C0
3180
3F00
3180
30C0
30C0
30C0
30C0
3980
3F00
3000
3000
3000
ENDCHAR
STARTCHAR 226
ENCODING 226
SWIDTH 12000 0
DWIDTH 12 0
BBX 12 20 0 -3
BITMAP
0000
0000
0000
0000
0000
0000
0000
3FC0
30C0
3040
3000
3000
3000
3000
3000
3000
3000
0000
0000
0000
ENDCHAR
STARTCHAR 227
ENCODING 227
SWIDTH 12000 0
DWIDTH 12 0
BBX 12 20 0 -3
BITMAP
0000
0000
0000
0000
0000
0000
0000
1FE0
3CC0
2CC0
0CC0
0CC0
0CC0
0CC0
0CC0
0CC0
3860
0000
0000
0000
ENDCHAR
STARTCHAR 228
ENCODING 228
SWIDTH 12000 0
DWIDTH 12 0
BBX 12 20 0 -3
BITMAP
0000
0000
0000
0000
0000
0000
0000
3FE0
1820
0C00
0600
0300
0300
0600
0C00
1820
3FE0
0000
0000
0000
ENDCHAR
STARTCHAR 229
ENCODING 229
SWIDTH 12000 0
DWIDTH 12 0
BBX 12 20 0 -3
BITMAP
0000
0000
0000
0000
0000
0000
0000
0FF0
1980
30C0
30C0
30C0
30C0
30C0
30C0
1980
0E00
0000
0000
0000
ENDCHAR
STARTCHAR 230
ENCODING 230
SWIDTH 12000 0
DWIDTH 12 0
BBX 12 20 0 -3
BITMAP
0000
0000
0000
0000
0000
0000
0000
30C0
30C0
30C0
30C0
30C0
30C0
30C0
30C0
39C0
3670
3000
3000
3000
ENDCHAR
STARTCHAR 231
ENCODING 231
SWIDTH 12000 0
DWIDTH 12 0
BBX 12 20 0 -3
BITMAP
0000
0000
0000
0000
0000
0000
0000
1FE0
3300
2300
0300
0300
0300
0300
0300
0300
0180
0000
0000
0000
ENDCHAR
STARTCHAR 232
ENCODING 232
SWIDTH 12000 0
DWIDTH 12 0
BBX 12 20 0 -3
BITMAP
0000
0000
0000
0000
0780
0300
0300
1FE0
3030
3030
3030
3030
3030
1FE0
0300
0300
0780
0000
0000
0000
ENDCHAR
STARTCHAR 233
ENCODING 233
SWIDTH 12000 0
DWIDTH 12 0
BBX 12 20 0 -3
BITMAP
0000
0000
0000
0000
0F80
18C0
3060
3060
3060
3060
3FE0
3060
3060
3060
3060
18C0
0F80
0000
0000
0000
ENDCHAR
STARTCHAR 234
ENCODING 234
SWIDTH 12000 0
DWIDTH 12 0
BBX 12 20 0 -3
BITMAP
0000
0000
0000
0000
0000
0000
0000
0FC0
1860
3030
3030
3030
3030
3030
1860
0CC0
3CF0
0000
0000
0000
ENDCHAR
STARTCHAR 235
ENCODING 235
SWIDTH 12000 0
DWIDTH 12 0
BBX 12 20 0 -3
BITMAP
0000
0000
0000
0000
0FE0
1800
0C00
0600
0F80
18C0
3060
3060
3060
3060
3060
18C0
0F80
0000
0000
0000
ENDCHAR
STARTCHAR 236
ENCODING 236
SWIDTH 12000 0
DWIDTH 12 0
BBX 12 20 0 -3
BITMAP
0000
0000
0000
0000
0000
0000
0000
0000
0000
1CE0
37B0
3330
3330
3330
37B0
1CE0
0000
0000
0000
0000
ENDCHAR
STARTCHAR 237
ENCODING 237
SWIDTH 12000 0
DWIDTH 12 0
BBX 12 20 0 -3
BITMAP
0000
0000
0000
0000
0300
0300
0300
1FE0
3330
3330
3330
3330
3330
1FE0
0300
0300
0300
0000
0000
0000
ENDCHAR
STARTCHAR 238
ENCODING 238
SWIDTH 12000 0
DWIDTH 12 0
BBX 12 20 0 -3
BITMAP
0000
0000
0000
0000
0000
0000
0000
0FE0
1800
3000
3000
3F80
3000
3000
3000
1800
0FE0
0000
0000
0000
ENDCHAR
STARTCHAR 239
ENCODING 239
SWIDTH 12000 0
DWIDTH 12 0
BBX 12 20 0 -3
BITMAP
0000
0000
0000
0000
0000
0000
0000
0F80
18C0
3060
3060
3060
3060
3060
3060
3060
3060
0000
0000
0000
ENDCHAR
STARTCHAR 240
ENCODING 240
SWIDTH 12000 0
DWIDTH 12 0
BBX 12 20 0 -3
BITMAP
0000
0000
0000
0000
0000
0000
3FE0
0000
0000
0000
3FE0
0000
0000
0000
3FE0
0000
0000
0000
0000
0000
ENDCHAR
STARTCHAR 241
ENCODING 241
SWIDTH 12000 0
DWIDTH 12 0
BBX 12 20 0 -3
BITMAP
0000
0000
0000
0000
0300
0300
0300
0300
3FF0
0300
0300
0300
0300
0000
3FF0
0000
0000
0000
0000
0000
ENDCHAR
STARTCHAR 242
ENCODING 242
SWIDTH 12000 0
DWIDTH 12 0
BBX 12 20 0 -3
BITMAP
0000
0000
0000
0000
1800
0C00
0600
0300
0180
00C0
0180
0300
0600
0C00
1800
0000
1FC0
0000
0000
0000
ENDCHAR
STARTCHAR 243
ENCODING 243
SWIDTH 12000 0
DWIDTH 12 0
BBX 12 20 0 -3
BITMAP
0000
0000
0000
0000
00C0
0180
0300
0600
0C00
1800
0C00
0600
0300
0180
00C0
0000
1FC0
0000
0000
0000
ENDCHAR
STARTCHAR 244
ENCODING 244
SWIDTH 12000 0
DWIDTH 12 0
BBX 12 20 0 -3
BITMAP
0000
0000
01E0
0330
0330
0300
0300
0300
0300
0300
0300
0300
0300
0300
0300
0300
0300
0300
0300
0300
ENDCHAR
STARTCHAR 245
ENCODING 245
SWIDTH 12000 0
DWIDTH 12 0
BBX 12 20 0 -3
BITMAP
0300
0300
0300
0300
0300
0300
0300
0300
0300
0300
0300
0300
0300
0300
0300
3300
3300
1E00
0000
0000
ENDCHAR
STARTCHAR 246
ENCODING 246
SWIDTH 12000 0
DWIDTH 12 0
BBX 12 20 0 -3
BITMAP
0000
0000
0000
0000
0000
0000
0000
0600
0600
0000
0000
3FC0
0000
0000
0600
0600
0000
0000
0000
0000
ENDCHAR
STARTCHAR 247
ENCODING 247
SWIDTH 12000 0
DWIDTH 12 0
BBX 12 20 0 -3
BITMAP
0000
0000
0000
0000
0000
0000
0000
0000
0E30
1B60
31C0
0000
0000
0E30
1B60
31C0
0000
0000
0000
0000
ENDCHAR
STARTCHAR 248
ENCODING 248
SWIDTH 12000 0
DWIDTH 12 0
BBX 12 20 0 -3
BITMAP
0000
0780
0FC0
0CC0
0CC0
0FC0
0780
0000
0000
0000
0000
0000
0000
0000
0000
0000
0000
0000
0000
0000
ENDCHAR
STARTCHAR 249
ENCODING 249
SWIDTH 12000 0
DWIDTH 12 0
BBX 12 20 0 -3
BITMAP
0000
0000
0000
0000
0000
0000
0000
0000
0780
0FC0
0FC0
0FC0
0FC0
0780
0000
0000
0000
0000
0000
0000
ENDCHAR
STARTCHAR 250
ENCODING 250
SWIDTH 12000 0
DWIDTH 12 0
BBX 12 20 0 -3
BITMAP
0000
0000
0000
0000
0000
0000
0000
0000
0000
0000
0600
0600
0000
0000
0000
0000
0000
0000
0000
0000
ENDCHAR
STARTCHAR 251
ENCODING 251
SWIDTH 12000 0
DWIDTH 12 0
BBX 12 20 0 -3
BITMAP
0000
0000
01F0
0180
0180
0180
0180
0180
0180
0180
0180
3180
1980
0D80
0780
0380
0180
0000
0000
0000
ENDCHAR
STARTCHAR 252
ENCODING 252
SWIDTH 12000 0
DWIDTH 12 0
BBX 12 20 0 -3
BITMAP
0000
0000
06C0
0760
0660
0660
0660
0660
0000
0000
0000
0000
0000
0000
0000
0000
0000
0000
0000
0000
ENDCHAR
STARTCHAR 253
ENCODING 253
SWIDTH 12000 0
DWIDTH 12 0
BBX 12 20 0 -3
BITMAP
0000
0000
01C0
0360
0060
00C0
0180
03E0
0000
0000
0000
0000
0000
0000
0000
0000
0000
0000
0000
0000
ENDCHAR
STARTCHAR 254
ENCODING 254
SWIDTH 12000 0
DWIDTH 12 0
BBX 12 20 0 -3
BITMAP
0000
0000
0000
0000
0000
0000
0000
0000
0F80
0F80
0F80
0F80
0F80
0000
0000
0000
0000
0000
0000
0000
ENDCHAR
STARTCHAR 255
ENCODING 255
SWIDTH 12000 0
DWIDTH 12 0
BBX 12 20 0 -3
BITMAP
0000
0000
0000
0000
0000
0000
0000
0000
0000
0000
0000
0000
0000
0000
0000
0000
0000
0000
0000
0000
ENDCHAR
ENDFONT
